<?xml version="1.0"?>
<svg width="1414" height="2000" xmlns="http://www.w3.org/2000/svg" xmlns:svg="http://www.w3.org/2000/svg" clip-rule="evenodd" fill-rule="evenodd" version="1.1">
 <g class="layer">
  <title>Layer 1</title>
  <g id="svg_1"/>
  <g id="svg_3">
   <path d="m949.5,1176.5c1.38,1.07 2.55,2.41 3.5,4c4.34,20.68 -3.49,33.68 -23.5,39c-2.93,-0.96 -5.93,-1.63 -9,-2c-6.67,2.03 -13.51,3.37 -20.5,4c-11.37,0.3 -15.7,-5.03 -13,-16c4.65,-22.95 12.65,-44.62 24,-65c2.07,-7.88 4.74,-15.55 8,-23c9.13,-16.6 17.47,-33.6 25,-51c4.28,-10.94 5.95,-22.27 5,-34c-8.09,-16.85 -15.09,-34.18 -21,-52c-5,-9.33 -10,-18.67 -15,-28c-10.79,-28.37 -23.12,-56.03 -37,-83c-1.2,-6.27 -3.2,-12.27 -6,-18c-7.91,-14.83 -16.08,-29.5 -24.5,-44c8.53,-16.03 20.86,-28.19 37,-36.5c5.48,-1.17 10.48,-0.17 15,3c7.81,6.82 14.31,14.65 19.5,23.5c7.67,16.67 15.33,33.33 23,50c8.4,3.74 14.07,10.08 17,19c7.73,21.84 15.06,43.84 22,66c1.83,4.33 4.16,8.33 7,12c2.72,3.38 6.05,4.71 10,4c5.39,-12.45 11.06,-24.79 17,-37c6.4,-9.4 12.4,-19.07 18,-29c9.12,-26.91 20.45,-52.91 34,-78c3.44,-5.78 7.28,-11.28 11.5,-16.5c13.82,-2.38 23.15,3.12 28,16.5c-6.89,21.84 -15.06,43.17 -24.5,64c-7.17,11 -13.84,22.34 -20,34c-1.73,6.59 -3.06,13.26 -4,20c-4.5,3.83 -9,7.67 -13.5,11.5c3.53,2.71 4.7,6.21 3.5,10.5c-6.98,19.29 -15.32,37.95 -25,56c-0.46,14.38 0.2,28.71 2,43c0.71,5.81 2.05,11.47 4,17c1.05,1.02 2.22,1.18 3.5,0.5c1.62,-2.08 3.12,-4.25 4.5,-6.5c3.43,5.6 6.09,11.6 8,18c10.1,6.51 15.93,15.84 17.5,28c-0.86,2.73 -2.03,5.4 -3.5,8c-0.26,6.31 1.08,12.31 4,18c4.94,6.53 7.6,13.87 8,22c5.61,3.76 11.44,4.43 17.5,2c2.78,0.89 5.45,2.06 8,3.5c5.04,5.38 9.71,11.04 14,17c16.45,2.76 27.95,11.93 34.5,27.5c4.6,13.97 -0.23,23.13 -14.5,27.5c-7.71,0.76 -15.38,0.43 -23,-1c-3.25,-1.58 -6.25,-3.58 -9,-6c-2.67,-0.33 -5.33,-0.67 -8,-1c-4.63,-5.63 -9.63,-10.97 -15,-16c-10.1,-3.42 -18.6,-9.25 -25.5,-17.5c-8,-9.33 -16,-18.67 -24,-28c-12.42,-17.84 -25.09,-35.51 -38,-53c-2.14,-2.82 -4.81,-4.82 -8,-6c-2.41,0.2 -4.41,1.2 -6,3c-2,3.33 -4,6.67 -6,10c0.26,4.76 0.93,9.43 2,14c-0.33,1 -0.67,2 -1,3c-2.04,-5.25 -3.88,-5.25 -5.5,0c0.52,2.9 2.02,3.56 4.5,2c0.53,4.64 -0.47,8.97 -3,13c-6.1,4.1 -10.77,9.43 -14,16c-2.13,6.14 -1.96,12.14 0.5,18z" fill="#d33024" id="svg_4"/>
  </g>
  <g id="svg_5">
   <path d="m697.5,774.5c8.01,-0.17 16.01,0 24,0.5c5.95,1.95 10.79,5.45 14.5,10.5c7.75,14.33 11.75,29.67 12,46c0.33,14.33 0.67,28.67 1,43c2.42,4.75 4.08,9.75 5,15c1.8,11.93 2.8,23.93 3,36c1.68,9.09 3.68,18.09 6,27c-4.38,31.4 2.28,60.07 20,86c0.67,1.67 0.67,3.33 0,5c-2.03,5.1 -3.87,10.27 -5.5,15.5c3.28,17.62 7.11,35.12 11.5,52.5c1.59,2.17 2.92,4.5 4,7c2.58,12.95 4.91,25.95 7,39c5.45,13.52 7.29,27.52 5.5,42c-9.06,5.89 -17.39,12.72 -25,20.5c-3.36,2.18 -7.02,3.68 -11,4.5c-4.82,-4.97 -10.15,-9.47 -16,-13.5c-5.79,-6.07 -9.62,-13.24 -11.5,-21.5c-2.21,-13.18 -5.21,-26.18 -9,-39c0.29,-25.08 -2.71,-49.75 -9,-74c-1.73,-4.45 -3.73,-8.79 -6,-13c-2.13,-2.82 -4.97,-4.15 -8.5,-4c-7.82,1.58 -15.49,3.74 -23,6.5c-4.05,3.19 -8.72,4.85 -14,5c-3.12,1.06 -6.12,2.39 -9,4c-3.06,0.74 -6.06,0.57 -9,-0.5c-10.5,5.53 -21.5,9.37 -33,11.5c-4.96,5.41 -8.79,11.58 -11.5,18.5c-6.44,19.44 -12.11,39.11 -17,59c-3.75,10.25 -8.08,20.25 -13,30c-4.34,9.01 -11.17,15.17 -20.5,18.5c-8.77,-0.22 -14.43,-4.56 -17,-13c5.03,-14.09 9.86,-28.26 14.5,-42.5c5.55,-24.54 11.88,-48.87 19,-73c2.54,-11.88 1.88,-23.55 -2,-35c-0.67,-3 -0.67,-6 0,-9c1.3,-1.48 2.97,-2.15 5,-2c4.2,1.13 8.37,1.13 12.5,0c0.92,-12.04 2.09,-24.04 3.5,-36c3.08,-7.81 6.41,-15.48 10,-23c2.71,-13.81 6.05,-27.48 10,-41c5.35,-8.69 9.01,-18.03 11,-28c2.72,-3.06 5.06,-6.39 7,-10c0.64,-6.74 1.64,-13.4 3,-20c9.71,-19.09 18.04,-38.76 25,-59c5.1,-14.04 12.6,-26.54 22.5,-37.5c4.33,-3.52 9,-6.36 14,-8.5z" fill="#d33023" id="svg_6"/>
  </g>
  <g id="svg_7">
   <path d="m463.5,783.5c2.03,-0.16 4.03,0 6,0.5c12.1,5.59 23.77,11.92 35,19c9.9,6.93 12.74,16.09 8.5,27.5c-3.07,7.86 -5.73,15.86 -8,24c-0.06,10.91 -1.73,21.58 -5,32c-0.67,2.67 -0.67,5.33 0,8c1.18,5.37 2.34,10.7 3.5,16c-1.71,11.18 -4.21,22.18 -7.5,33c-0.15,5.75 -0.81,11.41 -2,17c-6.13,2.8 -10.13,7.47 -12,14c-3.47,15.18 -5.97,30.51 -7.5,46c0.21,2.35 1.38,4.02 3.5,5c0.31,13.44 -3.69,25.44 -12,36c-0.67,2.67 -0.67,5.33 0,8c3.51,1.67 5.67,4.33 6.5,8c-0.63,11.06 -1.8,22.06 -3.5,33c-1.06,3.12 -2.39,6.12 -4,9c-0.56,7.26 -2.23,14.26 -5,21c-3.3,7.11 -6.47,14.27 -9.5,21.5c2.2,3.22 3.04,6.72 2.5,10.5c-3.83,6 -6.83,12.33 -9,19c-5.2,5.53 -10.7,10.7 -16.5,15.5c-3.71,0.17 -7.38,0.67 -11,1.5c-5.19,7.35 -11.52,13.52 -19,18.5c-11.87,2.18 -23.54,5.18 -35,9c-3.97,1 -7.97,1.33 -12,1c-6.9,-5.06 -12.57,-11.23 -17,-18.5c-5.38,-1.52 -10.38,-3.86 -15,-7c-1.82,2.32 -3.82,4.48 -6,6.5c-1,0.67 -2,0.67 -3,0c-1.92,-4.52 -4.59,-8.52 -8,-12c-12.23,-2.2 -21.4,-8.7 -27.5,-19.5c-1.1,-10.39 3.07,-17.72 12.5,-22c5.75,2.58 11.75,4.41 18,5.5c9.27,7.26 17.93,15.26 26,24c2,1.33 4,2.67 6,4c8.86,3.01 17.69,6.17 26.5,9.5c9.51,-2.92 18.51,-6.92 27,-12c1.11,-3.62 2.11,-7.29 3,-11c5.26,-9.52 11.26,-18.52 18,-27c0.82,-2.29 1.49,-4.62 2,-7c2.44,-3.43 4.44,-7.1 6,-11c2.45,-12.31 4.79,-24.64 7,-37c1.65,-5.64 4.98,-9.97 10,-13c3.69,-9.13 3.19,-17.97 -1.5,-26.5c1.42,-3.68 3.26,-7.18 5.5,-10.5c0.54,-3.95 0.04,-7.78 -1.5,-11.5c3.97,-12.06 4.97,-24.4 3,-37c0.91,-3.99 2.75,-7.49 5.5,-10.5c-0.21,-8.16 -0.71,-16.33 -1.5,-24.5c1.23,-10.81 2.23,-21.64 3,-32.5c0.14,-4.32 -0.53,-8.49 -2,-12.5c0.63,-4.17 1.29,-8.34 2,-12.5c-0.89,-2.4 -2.39,-4.4 -4.5,-6c-0.92,-1.53 -1.42,-3.2 -1.5,-5c1.13,-18.32 1.29,-36.65 0.5,-55c-0.48,-2.15 -1.81,-3.15 -4,-3c-5.31,2.2 -10.81,4.04 -16.5,5.5c-6,3.5 -12.33,6.17 -19,8c-13.32,12.99 -29.32,19.99 -48,21c-18.38,6.68 -37.05,12.35 -56,17c-9.1,0.48 -17.76,-1.18 -26,-5c-6.04,-5.46 -7.38,-11.79 -4,-19c1.67,-0.67 3.33,-0.67 5,0c6.44,7.27 14.11,8.6 23,4c14.67,-5.17 28.33,-12.17 41,-21c5.08,-1.8 10.08,-3.8 15,-6c9.06,-6.73 18.39,-13.06 28,-19c11.92,-5.2 23.92,-10.2 36,-15c15.57,-9.61 30.9,-19.44 46,-29.5z" fill="#d33024" id="svg_8"/>
  </g>
  <g id="svg_9">
   <path d="m689.5,875.5c2.19,1.32 3.69,3.32 4.5,6c1.82,6.29 3.49,12.62 5,19c0.3,10.69 0.97,21.36 2,32c3.43,18.6 6.43,37.26 9,56c0.91,9.08 0.58,18.08 -1,27c-1.87,2.21 -4.04,4.04 -6.5,5.5c-13.09,1.82 -26.09,4.15 -39,7c-7.96,1.33 -15.96,1.66 -24,1c-1.2,-0.9 -2.03,-2.07 -2.5,-3.5c-0.99,-9.13 -0.33,-18.13 2,-27c4.51,-12.68 9.84,-25.02 16,-37c1.38,-6.3 2.55,-12.63 3.5,-19c5.85,-4.02 10.02,-9.35 12.5,-16c2.11,-18.5 8.28,-35.5 18.5,-51z" fill="#f1ede9" id="svg_10"/>
  </g>
  <g id="svg_11">
   <path d="m487.5,912.5c1.26,1.01 1.93,2.51 2,4.5c-0.17,1.5 -0.33,3 -0.5,4.5c-1.39,-2.78 -1.89,-5.78 -1.5,-9z" fill="#efd2cc" id="svg_12"/>
  </g>
  <g id="svg_13">
   <path d="m1031.5,917.5c2.39,0.18 3.39,1.52 3,4c-1.26,3.95 -2.43,7.95 -3.5,12c-3.29,-5.64 -3.12,-10.97 0.5,-16z" fill="#f0e3de" id="svg_14"/>
  </g>
  <g id="svg_15">
   <path d="m963.5,930.5c3.23,0.06 5.06,1.73 5.5,5c1.48,6.26 1.82,12.6 1,19c-2.68,-2.03 -4.35,-4.69 -5,-8c-1.27,-5.25 -1.77,-10.59 -1.5,-16z" fill="#f1e4e0" id="svg_16"/>
  </g>
  <g id="svg_17">
   <path d="m1020.5,933.5c3.96,-0.23 7.62,0.6 11,2.5c-1.17,1.17 -2.33,2.33 -3.5,3.5c-4.86,10.25 -9.53,20.58 -14,31c-2.48,1.81 -5.31,2.48 -8.5,2c1.34,-5.67 3.5,-11 6.5,-16c0.42,-3.81 0.08,-7.48 -1,-11c2.62,-4.45 5.79,-8.45 9.5,-12z" fill="#f1e9e5" id="svg_18"/>
  </g>
  <g id="svg_19">
   <path d="m971.5,957.5c1.23,2.16 2.57,4.33 4,6.5c-3.21,3.57 -4.87,2.9 -5,-2c0.11,-1.59 0.44,-3.09 1,-4.5z" fill="#efd2cc" id="svg_20"/>
  </g>
  <g id="svg_21">
   <path d="m967.5,981.5c2.47,0.45 2.64,1.45 0.5,3c-0.48,-0.95 -0.65,-1.95 -0.5,-3z" fill="#efdad5" id="svg_22"/>
  </g>
  <g id="svg_23">
   <path d="m470.5,1026.5c1.21,1 1.05,2 -0.5,3c-0.47,-1.08 -0.3,-2.08 0.5,-3z" fill="#e5948a" id="svg_24"/>
  </g>
  <g id="svg_25">
   <path d="m462.5,1053.5c2.58,0.22 3.41,1.56 2.5,4c-1.48,-0.97 -2.31,-2.3 -2.5,-4z" fill="#f0e0db" id="svg_26"/>
  </g>
  <g id="svg_27">
   <path d="m451.5,1059.5c2.7,2.28 2.37,4.28 -1,6c-1.27,-2.26 -0.94,-4.26 1,-6z" fill="#eeccc6" id="svg_28"/>
  </g>
  <g id="svg_29">
   <path d="m960.5,1075.5c1.32,-0.17 2.49,0.16 3.5,1c0.66,4.07 0.33,8.07 -1,12c-5.33,11.32 -10.67,22.65 -16,34c-1.9,4.26 -5.06,6.43 -9.5,6.5c-2.88,-1.67 -3.71,-4.17 -2.5,-7.5c1.64,-9.79 5.81,-18.29 12.5,-25.5c-2.95,-4.97 -2.62,-9.64 1,-14c3.93,-2.46 7.93,-4.63 12,-6.5z" fill="#f1e9e5" id="svg_30"/>
  </g>
  <g id="svg_31">
   <path d="m1044.5,1080.5c3.39,0.37 5.22,2.37 5.5,6c0.57,12.93 -1.43,13.26 -6,1c-0.7,-2.43 -0.54,-4.76 0.5,-7z" fill="#f0e1dc" id="svg_32"/>
  </g>
  <g id="svg_33">
   <path d="m1026.5,1120.5c7.93,2.84 11.59,8.51 11,17c-2.22,0.32 -4.06,-0.34 -5.5,-2c-2.17,-4.33 -4.33,-8.67 -6.5,-13c0.36,-0.68 0.7,-1.35 1,-2z" fill="#f0e3de" id="svg_34"/>
  </g>
  <g id="svg_35">
   <path d="m1084.5,1121.5c2.82,-0.42 4.99,0.58 6.5,3c2.74,5.39 4.57,11.06 5.5,17c-3.28,0.23 -5.78,-1.1 -7.5,-4c-2.44,-5.1 -3.94,-10.43 -4.5,-16z" fill="#d4382a" id="svg_36"/>
  </g>
  <g id="svg_37">
   <path d="m934.5,1138.5c2,0 4,0 6,0c-0.83,7.83 -5.16,11.16 -13,10c0.73,-4.41 3.06,-7.74 7,-10z" fill="#f1e7e3" id="svg_38"/>
  </g>
  <g id="svg_39">
   <path d="m1074.5,1158.5c6.99,-0.85 9.32,1.98 7,8.5c-5.92,-0.07 -8.25,-2.9 -7,-8.5z" fill="#f0e1dc" id="svg_40"/>
  </g>
  <g id="svg_41">
   <path d="m927.5,1168.5c1.85,-0.28 3.18,0.39 4,2c-6.1,12.09 -7.43,11.42 -4,-2z" fill="#f0dfda" id="svg_42"/>
  </g>
  <g id="svg_43">
   <path d="m949.5,1176.5c0.26,2.41 -0.74,4.08 -3,5c-1.75,-3.33 -0.75,-5 3,-5z" fill="#f1e9e5" id="svg_44"/>
  </g>
  <g id="svg_45">
   <path d="m287.5,1177.5c1.96,0.45 2.3,1.45 1,3c-0.89,-0.82 -1.22,-1.82 -1,-3z" fill="#f0dad5" id="svg_46"/>
  </g>
  <g id="svg_47">
   <path d="m326.5,1200.5c4.79,-0.87 7.13,1.13 7,6c-4,0.04 -6.33,-1.96 -7,-6z" fill="#efd4ce" id="svg_48"/>
  </g>
 </g>

</svg>