<?xml version="1.0"?>
<svg width="591" height="1005.0000000000001" xmlns="http://www.w3.org/2000/svg" xmlns:svg="http://www.w3.org/2000/svg" preserveAspectRatio="xMidYMid meet" version="1.0">
 <g class="layer">
  <title>Layer 1</title>
  <g fill="#d32f23" id="svg_1" transform="rotate(8.97906 308.098 711.334) matrix(0.117309 0 0 -0.107606 -37.7825 -46.1236)">
   <path d="m2755.91,-6112.67c-85,-29 -129,-69 -212,-196c-72,-110 -86,-124 -176,-173c-79,-43 -160,-128 -177,-184c-27,-90 -7,-163 46,-163c36,-1 102,-31 157,-74c25,-19 68,-40 98,-47c28,-6 79,-22 112,-35c33,-12 105,-27 160,-34c55,-6 103,-15 107,-18c4,-4 9,-52 11,-107l3,-100l2,102l2,102l31,-4c18,-2 36,-8 41,-13c6,-6 9,-83 7,-187c-3,-147 -2,-171 8,-146c15,36 21,227 10,294c-16,93 22,48 70,-83l23,-65l-4,51c-4,43 -18,86 -44,137c-2,4 4,7 13,7c23,0 64,-99 75,-184c12,-94 12,-319 0,-427c-11,-97 -39,-187 -70,-227c-36,-45 -99,-82 -141,-82c-61,0 -143,36 -183,80c-53,59 -50,94 25,253c65,139 113,274 123,347c4,31 -1,21 -17,-35c-24,-84 -77,-211 -146,-354c-46,-96 -52,-148 -22,-197c40,-66 135,-114 226,-114c77,0 154,70 188,171c39,114 64,403 47,540c-10,87 -42,193 -61,204c-20,13 -7,23 36,29c24,4 97,25 162,47c65,22 152,47 193,55c96,20 161,55 205,112c28,36 35,54 34,86c-1,40 -1,40 -9,10c-10,-44 -44,-97 -85,-133c-33,-29 -116,-61 -159,-61c-12,0 -78,-20 -148,-44c-70,-25 -161,-50 -202,-56c-74,-11 -96,-10 -243,12l-73,11l0,33c0,20 -12,52 -30,81c-16,26 -30,52 -30,58c0,6 -11,22 -24,34c-54,51 -187,32 -246,-35c-16,-19 -30,-41 -30,-49c0,-26 -17,-24 -59,7c-40,32 -41,34 -41,93c0,85 -18,109 -76,101c-25,-3 -46,-1 -49,5c-18,28 86,149 163,188c39,20 40,20 78,1c50,-26 98,-25 159,4c124,57 186,206 116,277c-16,16 -37,29 -46,29c-9,0 -13,5 -9,11c12,20 90,49 161,59c76,10 142,-1 229,-40l43,-18l-20,-38c-10,-21 -19,-48 -19,-60c0,-12 -7,-38 -15,-57c-19,-46 -19,-120 -1,-155c52,-99 174,-133 267,-73c24,15 57,42 72,58l28,30l117,-57c121,-60 152,-84 170,-135l10,-30l1,34c1,28 -7,42 -43,76c-24,24 -66,50 -92,60c-151,55 -162,63 -246,172c-87,113 -140,159 -233,202c-118,56 -237,65 -348,27zm-26,-128c19,-47 -11,-148 -58,-190c-38,-35 -114,-61 -160,-55c-69,7 -74,20 -26,70c22,23 62,76 88,117c26,41 56,85 68,97c19,21 21,22 48,6c16,-9 33,-29 40,-45zm472,13c26,-20 69,-63 94,-96c25,-33 60,-75 77,-92l30,-33l-30,-31c-90,-95 -199,-106 -270,-27c-48,52 -56,110 -29,188c8,23 15,55 15,71c0,33 34,73 53,63c7,-4 34,-23 60,-43zm-933,-471c34,0 39,-4 49,-32c6,-17 8,-47 5,-65c-6,-32 -8,-34 -38,-28c-70,15 -81,26 -84,84c-3,46 -1,53 13,47c9,-3 34,-6 55,-6zm420,-105c16,-8 32,-25 36,-37c4,-13 20,-42 35,-65c28,-39 38,-87 22,-96c-16,-10 -134,14 -185,36c-29,13 -77,30 -106,36c-29,7 -52,16 -52,20c0,3 11,23 24,42c22,32 53,53 106,72c30,11 92,7 120,-8z" fill="#ff0000" id="svg_2"/>
   <path d="m3169.91,-6746.67c-19,-9 -44,-29 -55,-44c-16,-23 -18,-32 -8,-53c19,-42 52,-50 120,-31c32,9 74,16 93,16c40,0 64,15 74,48c5,17 -1,29 -24,52c-27,27 -35,30 -98,30c-45,0 -80,-6 -102,-18zm183,-13c51,-40 27,-67 -71,-80c-38,-5 -84,-12 -104,-15c-75,-12 -75,60 1,98c50,26 140,24 174,-3z" fill="#ff0000" id="svg_3"/>
   <path d="m2922.91,-7120.67c3,-29 6,-73 7,-98c1,-43 1,-44 10,-15c6,19 5,54 -2,98c-13,79 -25,90 -15,15z" fill="#ff0000" id="svg_4"/>
   <path d="m2956.91,-7860.67c-23,-25 -34,-28 -88,-28c-65,0 -74,-13 -16,-23c49,-8 103,9 122,38c24,36 13,44 -18,13z" fill="#ff0000" id="svg_5"/>
  </g>
 </g>
</svg>