<?xml version="1.0"?>
<svg width="591" height="1005" xmlns="http://www.w3.org/2000/svg" xmlns:svg="http://www.w3.org/2000/svg" preserveAspectRatio="xMidYMid meet" version="1.0">
 <g class="layer">
  <title>Layer 1</title>
  <g fill="#d32f23" id="svg_1" transform="translate(0.000000,1005.000000) scale(0.100000,-0.100000)">
   <path d="m3815,7920c-79,-80 -80,-80 -132,-80c-54,0 -71,-13 -30,-24c67,-18 87,-9 166,69c41,41 78,75 83,75c4,0 8,-12 8,-26c0,-19 -19,-43 -71,-92c-96,-90 -96,-90 -57,-159c29,-52 33,-66 33,-138c0,-252 -201,-479 -600,-678c-108,-53 -246,-105 -374,-139c-110,-30 -125,-32 -296,-32c-140,1 -206,6 -298,22c-128,24 -224,57 -241,84c-22,36 11,48 188,69c93,10 204,28 248,39c157,41 329,130 441,230c83,73 145,168 238,357c95,192 144,268 210,320c81,64 172,79 213,34c9,-9 27,-51 41,-91c14,-41 35,-84 47,-97c33,-36 128,-57 128,-29c0,8 -16,16 -42,19c-54,7 -79,35 -108,121c-27,83 -51,113 -101,126c-32,9 -52,8 -97,-5c-47,-14 -68,-29 -133,-94c-73,-72 -83,-88 -164,-257c-48,-98 -103,-203 -123,-233c-115,-174 -308,-305 -543,-370c-72,-19 -131,-29 -329,-51c-141,-16 -185,-59 -121,-119c90,-84 555,-136 780,-87c209,45 487,165 685,296c246,163 379,361 380,565c1,68 -5,88 -62,197c-4,8 6,17 96,101c44,40 52,53 52,83c0,36 -15,74 -28,74c-4,0 -43,-36 -87,-80z" id="svg_2"/>
   <path d="m3432,7831c4,-13 18,-16 19,-4c0,4 -5,9 -11,12c-7,2 -11,-2 -8,-8z" id="svg_3"/>
   <path d="m3330,7753c-50,-57 -95,-136 -157,-275c-25,-57 -64,-131 -86,-166c-22,-35 -36,-66 -32,-70c12,-12 64,59 102,138c121,255 145,299 193,352c27,31 50,59 50,62c0,20 -34,-1 -70,-41z" id="svg_4"/>
  </g>
 </g>
</svg>