<?xml version="1.0"?>
<svg width="591" height="1005" xmlns="http://www.w3.org/2000/svg" xmlns:svg="http://www.w3.org/2000/svg" preserveAspectRatio="xMidYMid meet" version="1.0">
 <g class="layer">
  <title>Layer 1</title>
  <g fill="#d32f23" id="svg_1" transform="matrix(0.1 0 0 -0.1 0 0)">
   <path d="m2633,-3829c-46,-21 -83,-76 -103,-150l-11,-44l-23,50c-23,49 -71,95 -133,127c-32,16 -33,16 -39,-9c-3,-14 -4,-52 -2,-84c3,-48 11,-68 46,-119c23,-33 44,-73 48,-89l7,-27l-39,30c-21,17 -49,36 -61,43c-29,15 -99,13 -143,-4c-43,-17 -37,-18 30,-5c67,13 119,0 163,-40l32,-30l-157,7c-104,4 -158,3 -158,-4c0,-11 113,-23 211,-23c32,0 60,-4 63,-8c8,-13 -121,-36 -196,-35c-51,1 -78,7 -109,25c-24,12 -44,28 -46,33c-2,6 19,19 47,29c72,26 57,29 -23,4c-57,-17 -66,-22 -55,-35c18,-23 102,-62 147,-69c23,-4 41,-9 41,-11c0,-3 -20,-27 -44,-54c-35,-39 -53,-75 -90,-175c-26,-70 -44,-129 -42,-131c9,-9 53,23 119,85c37,36 69,63 71,61c3,-2 -7,-47 -21,-99c-37,-140 -35,-198 8,-290c41,-86 146,-217 270,-335c129,-123 166,-150 322,-234c79,-43 165,-95 190,-114c101,-77 240,-105 338,-68c111,42 180,131 198,257c20,132 53,648 47,714c-18,181 -98,370 -198,467c-128,125 -459,188 -642,124c-33,-12 -63,-21 -67,-21c-5,0 5,21 21,48c40,64 62,223 32,222c-4,0 -26,-9 -49,-19zm40,-58c-7,-78 -24,-130 -49,-154c-30,-28 -30,-23 1,53c28,68 29,71 17,64c-5,-3 -21,-36 -35,-74c-27,-68 -97,-155 -97,-120c0,22 55,190 75,228c16,30 43,48 76,49c14,1 16,-7 12,-46zm-259,-4c55,-37 86,-91 86,-149c0,-47 -19,-99 -45,-120c-16,-13 -17,-10 -10,62c8,81 -3,136 -32,159c-13,12 -13,9 1,-25c17,-40 22,-136 8,-136c-11,0 -45,46 -71,97c-29,59 -28,143 3,143c7,0 34,-14 60,-31zm592,-170c101,-17 240,-68 287,-104c107,-82 200,-270 227,-460c9,-66 8,-119 -9,-310c-11,-126 -25,-287 -30,-357c-8,-110 -13,-135 -37,-179c-60,-108 -182,-167 -309,-147c-65,10 -115,33 -200,93c-33,23 -109,68 -168,100c-136,72 -199,119 -327,242c-186,177 -277,314 -287,432c-14,166 84,370 232,477c37,27 90,69 119,93c53,46 168,105 233,120c54,13 198,13 269,0zm-736,-223c-45,-36 -103,-103 -126,-148c-23,-45 -9,-33 50,41c49,61 120,120 131,109c12,-12 -271,-308 -295,-308c-23,0 57,209 98,255c46,52 107,84 161,85c21,0 19,-4 -19,-34z" id="svg_2"/>
   <path d="m3000,-4134c-16,-21 8,-71 35,-71c27,0 32,40 9,66c-21,23 -28,24 -44,5zm43,-37c3,-13 1,-19 -6,-16c-15,5 -22,37 -9,37c5,0 12,-9 15,-21z" id="svg_3"/>
   <path d="m2800,-4208c0,-26 34,-72 53,-72c16,0 6,61 -13,80c-28,28 -40,25 -40,-8zm43,-22c3,-14 1,-20 -6,-17c-7,2 -14,14 -15,26c-4,28 13,20 21,-9z" id="svg_4"/>
   <path d="m2550,-4229c0,-10 10,-31 21,-45c17,-21 24,-25 30,-14c13,20 11,45 -7,62c-21,22 -44,20 -44,-3zm43,-21c3,-11 1,-20 -4,-20c-5,0 -9,9 -9,20c0,11 2,20 4,20c2,0 6,-9 9,-20z" id="svg_5"/>
   <path d="m3240,-4234c0,-14 11,-38 25,-53c21,-24 26,-26 35,-13c13,20 3,51 -22,73c-28,23 -38,21 -38,-7zm46,-33c-7,-7 -26,7 -26,19c0,6 6,6 15,-2c9,-7 13,-15 11,-17z" id="svg_6"/>
   <path d="m3076,-4348c-7,-12 31,-92 44,-92c6,0 15,11 22,25c9,19 8,29 -6,50c-16,24 -49,34 -60,17zm54,-44c0,-30 -25,-15 -28,17c-3,25 -2,27 12,16c9,-8 16,-22 16,-33z" id="svg_7"/>
   <path d="m2356,-4358c-6,-11 36,-84 52,-90c20,-6 15,62 -6,81c-20,18 -38,22 -46,9zm47,-37c4,-8 2,-17 -3,-20c-6,-4 -10,-4 -10,-1c0,2 -3,11 -6,20c-3,9 -2,16 4,16c5,0 12,-7 15,-15z" id="svg_8"/>
   <path d="m2600,-4434c0,-13 9,-35 21,-50c17,-21 24,-24 35,-15c18,15 9,48 -18,72c-27,23 -38,22 -38,-7zm44,-22c15,-39 -4,-42 -24,-3c-8,15 -7,19 4,19c7,0 17,-7 20,-16z" id="svg_9"/>
   <path d="m2894,-4434c-8,-20 43,-116 61,-116c25,0 29,28 9,71c-23,51 -59,74 -70,45zm66,-73c0,-34 -19,-28 -36,12c-21,50 -17,62 11,35c14,-13 25,-34 25,-47z" id="svg_10"/>
   <path d="m3307,-4476c-20,-20 8,-95 43,-114c18,-10 20,-8 20,24c0,37 -48,105 -63,90zm37,-73c-6,-6 -24,19 -24,34c1,6 7,1 15,-9c8,-11 12,-22 9,-25z" id="svg_11"/>
   <path d="m2436,-4602c34,-68 74,-91 74,-43c0,31 -41,75 -70,75c-20,0 -20,-1 -4,-32zm42,-9c14,-22 10,-35 -6,-25c-12,7 -23,46 -13,46c3,0 12,-9 19,-21z" id="svg_12"/>
   <path d="m2716,-4666c-11,-30 -6,-53 20,-83c14,-17 30,-31 34,-31c19,0 20,41 1,78c-22,44 -46,59 -55,36zm39,-34c8,-16 15,-37 15,-47c0,-16 -2,-16 -19,2c-23,24 -38,75 -22,75c6,0 17,-13 26,-30z" id="svg_13"/>
   <path d="m2207,-4677c-12,-11 -8,-50 6,-60c6,-6 20,-13 30,-16c14,-5 17,-1 17,23c0,39 -34,73 -53,53zm33,-41c0,-15 -2,-15 -10,-2c-13,20 -13,33 0,25c6,-3 10,-14 10,-23z" id="svg_14"/>
   <path d="m3395,-4727c16,-68 57,-93 63,-40c4,29 -27,67 -54,67c-13,0 -15,-6 -9,-27zm39,-19c9,-23 7,-36 -3,-30c-12,8 -21,46 -11,46c4,0 11,-7 14,-16z" id="svg_15"/>
   <path d="m2350,-4746c0,-26 31,-84 51,-95c39,-20 15,75 -25,103c-17,12 -26,9 -26,-8zm45,-34c17,-33 18,-40 7,-40c-5,0 -16,16 -25,35c-20,42 -4,47 18,5z" id="svg_16"/>
   <path d="m3195,-4740c-10,-17 4,-66 25,-85c18,-16 19,-16 26,11c11,43 -32,105 -51,74zm35,-53c0,-5 -4,-5 -10,-2c-5,3 -10,14 -10,23c0,15 2,15 10,2c5,-8 10,-19 10,-23z" id="svg_17"/>
   <path d="m2994,-4785c-8,-19 28,-80 47,-80c21,0 24,59 4,79c-20,20 -44,21 -51,1zm44,-17c7,-7 12,-21 12,-31c0,-16 -3,-17 -14,-8c-15,13 -28,51 -17,51c4,0 12,-5 19,-12z" id="svg_18"/>
   <path d="m2836,-4899c-9,-14 4,-43 32,-73c33,-35 42,-35 42,1c0,48 -56,102 -74,72zm42,-33c14,-14 16,-42 2,-33c-14,9 -32,45 -22,45c4,0 13,-5 20,-12z" id="svg_19"/>
   <path d="m3310,-4920c0,-21 27,-75 44,-89c37,-31 41,39 5,78c-21,22 -49,28 -49,11zm55,-68c-8,-8 -25,17 -25,38c0,9 6,6 16,-8c9,-13 13,-26 9,-30z" id="svg_20"/>
   <path d="m2421,-5037c22,-59 79,-96 79,-52c0,24 -51,79 -74,79c-13,0 -14,-5 -5,-27zm59,-47c-1,-6 -10,0 -20,13c-11,13 -20,28 -20,35c1,6 10,0 20,-13c11,-13 20,-28 20,-35z" id="svg_21"/>
   <path d="m2655,-5090c-7,-11 21,-55 55,-85l23,-20l-6,43c-3,23 -11,49 -17,57c-14,17 -46,20 -55,5zm62,-56c-4,-4 -14,1 -22,12c-22,29 -18,41 7,17c12,-13 19,-26 15,-29z" id="svg_22"/>
   <path d="m3184,-5094c-7,-18 35,-98 53,-104c39,-12 19,75 -23,103c-21,14 -25,14 -30,1zm56,-75c-1,-10 -6,-7 -15,9c-19,33 -18,50 0,26c8,-11 15,-27 15,-35z" id="svg_23"/>
   <path d="m3380,-5217c1,-36 24,-67 45,-60c21,9 19,29 -6,61c-26,33 -39,33 -39,-1zm40,-36c0,-5 -4,-5 -10,-2c-5,3 -10,14 -10,23c0,15 2,15 10,2c5,-8 10,-19 10,-23z" id="svg_24"/>
   <path d="m2855,-5272c17,-56 84,-94 70,-40c-9,35 -33,62 -57,62c-15,0 -18,-5 -13,-22zm54,-43c0,-5 -6,-1 -14,9c-8,11 -15,24 -15,30c0,5 7,1 15,-10c8,-10 14,-23 14,-29z" id="svg_25"/>
   <path d="m3115,-5350c-18,-29 43,-116 66,-93c15,15 -7,80 -31,93c-23,12 -27,12 -35,0zm43,-32c14,-14 16,-38 4,-38c-5,0 -14,11 -20,25c-12,26 -4,33 16,13z" id="svg_26"/>
   <path d="m3310,-5369c0,-28 33,-81 51,-81c14,0 11,38 -7,76c-20,42 -44,45 -44,5zm35,-22c10,-30 0,-33 -13,-4c-6,14 -7,25 -2,25c5,0 12,-9 15,-21z" id="svg_27"/>
  </g>
 </g>
</svg>